Urbanist-BlackItalic.ufo
<glyph name="parenright" format="2">
  <advance width="820"/>
  <unicode hex="0029"/>
  <outline>
    <contour>
      <point x="9" y="-106" type="curve"/>
      <point x="319" y="-118" type="line"/>
      <point x="559" y="92"/>
      <point x="674" y="318"/>
      <point x="718" y="627" type="curve" smooth="yes"/>
      <point x="751" y="864"/>
      <point x="674" y="1337"/>
      <point x="518" y="1397" type="curve"/>
      <point x="234" y="1404" type="line"/>
      <point x="348" y="1342"/>
      <point x="455" y="890"/>
      <point x="423" y="661" type="curve" smooth="yes"/>
      <point x="378" y="340"/>
      <point x="163" y="46"/>
    </contour>
  </outline>
</glyph>
<glyph name="comma" format="2">
  <advance width="562"/>
  <unicode hex="002C"/>
  <outline>
    <contour>
      <point x="-7" y="-112" type="line"/>
      <point x="197" y="-112" type="line"/>
      <point x="406" y="226" type="line"/>
      <point x="102" y="226" type="line"/>
    </contour>
  </outline>
</glyph>
<glyph name="four" format="2">
  <advance width="1194"/>
  <unicode hex="0034"/>
  <outline>
    <contour>
      <point x="602" y="0" type="line"/>
      <point x="902" y="0" type="line"/>
      <point x="945" y="310" type="line"/>
      <point x="1047" y="310" type="line"/>
      <point x="1089" y="610" type="line"/>
      <point x="987" y="610" type="line"/>
      <point x="1098" y="1400" type="line"/>
      <point x="727" y="1400" type="line"/>
      <point x="92" y="610" type="line"/>
      <point x="53" y="310" type="line"/>
      <point x="645" y="310" type="line"/>
    </contour>
    <contour>
      <point x="445" y="610" type="line"/>
      <point x="745" y="996" type="line"/>
      <point x="687" y="610" type="line"/>
    </contour>
  </outline>
</glyph>
<glyph name="five" format="2">
  <advance width="1172"/>
  <unicode hex="0035"/>
  <outline>
    <contour>
      <point x="505" y="-26" type="curve" smooth="yes"/>
      <point x="768" y="-26"/>
      <point x="1008" y="188"/>
      <point x="1045" y="447" type="curve" smooth="yes"/>
      <point x="1083" y="724"/>
      <point x="906" y="946"/>
      <point x="624" y="958" type="curve"/>
      <point x="570" y="960" type="line"/>
      <point x="620" y="1100" type="line"/>
      <point x="1080" y="1100" type="line"/>
      <point x="1122" y="1400" type="line"/>
      <point x="415" y="1400" type="line"/>
      <point x="155" y="660" type="line"/>
      <point x="535" y="660" type="line" smooth="yes"/>
      <point x="735" y="660"/>
      <point x="763" y="578"/>
      <point x="749" y="481" type="curve" smooth="yes"/>
      <point x="733" y="366"/>
      <point x="626" y="274"/>
      <point x="513" y="274" type="curve" smooth="yes"/>
      <point x="416" y="274"/>
      <point x="349" y="350"/>
      <point x="364" y="456" type="curve"/>
      <point x="66" y="472" type="line"/>
      <point x="29" y="208"/>
      <point x="218" y="-26"/>
    </contour>
  </outline>
</glyph>
<glyph name="eight" format="2">
  <advance width="1110"/>
  <unicode hex="0038"/>
  <outline>
    <contour>
      <point x="497" y="-26" type="curve" smooth="yes"/>
      <point x="752" y="-26"/>
      <point x="983" y="168"/>
      <point x="1017" y="409" type="curve" smooth="yes"/>
      <point x="1035" y="534"/>
      <point x="999" y="646"/>
      <point x="931" y="724" type="curve"/>
      <point x="1010" y="804"/>
      <point x="1055" y="894"/>
      <point x="1068" y="985" type="curve" smooth="yes"/>
      <point x="1102" y="1228"/>
      <point x="922" y="1426"/>
      <point x="667" y="1426" type="curve" smooth="yes"/>
      <point x="430" y="1426"/>
      <point x="213" y="1244"/>
      <point x="181" y="1019" type="curve" smooth="yes"/>
      <point x="166" y="910"/>
      <point x="196" y="816"/>
      <point x="242" y="748" type="curve"/>
      <point x="142" y="658"/>
      <point x="87" y="550"/>
      <point x="72" y="443" type="curve" smooth="yes"/>
      <point x="35" y="182"/>
      <point x="224" y="-26"/>
    </contour>
    <contour>
      <point x="505" y="274" type="curve" smooth="yes"/>
      <point x="426" y="274"/>
      <point x="371" y="334"/>
      <point x="381" y="409" type="curve" smooth="yes"/>
      <point x="394" y="502"/>
      <point x="485" y="578"/>
      <point x="582" y="578" type="curve" smooth="yes"/>
      <point x="661" y="578"/>
      <point x="717" y="518"/>
      <point x="706" y="443" type="curve" smooth="yes"/>
      <point x="693" y="350"/>
      <point x="602" y="274"/>
    </contour>
    <contour>
      <point x="590" y="878" type="curve" smooth="yes"/>
      <point x="527" y="878"/>
      <point x="484" y="926"/>
      <point x="492" y="985" type="curve" smooth="yes"/>
      <point x="503" y="1062"/>
      <point x="578" y="1126"/>
      <point x="659" y="1126" type="curve" smooth="yes"/>
      <point x="722" y="1126"/>
      <point x="765" y="1078"/>
      <point x="757" y="1019" type="curve" smooth="yes"/>
      <point x="746" y="942"/>
      <point x="671" y="878"/>
    </contour>
  </outline>
</glyph>
<glyph name="semicolon" format="2">
  <advance width="562"/>
  <unicode hex="003B"/>
  <outline>
    <contour>
      <point x="-7" y="-112" type="line"/>
      <point x="197" y="-112" type="line"/>
      <point x="406" y="226" type="line"/>
      <point x="102" y="226" type="line"/>
    </contour>
    <contour>
      <point x="337" y="700" type="curve" smooth="yes"/>
      <point x="410" y="700"/>
      <point x="478" y="758"/>
      <point x="489" y="833" type="curve" smooth="yes"/>
      <point x="502" y="924"/>
      <point x="436" y="1000"/>
      <point x="346" y="1000" type="curve" smooth="yes"/>
      <point x="270" y="1000"/>
      <point x="204" y="940"/>
      <point x="194" y="867" type="curve" smooth="yes"/>
      <point x="181" y="774"/>
      <point x="244" y="700"/>
    </contour>
  </outline>
</glyph>
<glyph name="C" format="2">
  <advance width="1398"/>
  <unicode hex="0043"/>
  <outline>
    <contour>
      <point x="691" y="-26" type="curve"/>
      <point x="908" y="-26"/>
      <point x="1118" y="81"/>
      <point x="1269" y="255" type="curve"/>
      <point x="1011" y="414" type="line"/>
      <point x="931" y="332"/>
      <point x="820" y="274"/>
      <point x="699" y="274" type="curve"/>
      <point x="494" y="274"/>
      <point x="354" y="458"/>
      <point x="386" y="683" type="curve"/>
      <point x="420" y="928"/>
      <point x="630" y="1126"/>
      <point x="853" y="1126" type="curve"/>
      <point x="956" y="1126"/>
      <point x="1047" y="1080"/>
      <point x="1106" y="1000" type="curve"/>
      <point x="1383" y="1131" type="line"/>
      <point x="1280" y="1305"/>
      <point x="1096" y="1426"/>
      <point x="861" y="1426" type="curve"/>
      <point x="490" y="1426"/>
      <point x="146" y="1110"/>
      <point x="90" y="717" type="curve"/>
      <point x="33" y="308"/>
      <point x="302" y="-26"/>
    </contour>
  </outline>
</glyph>
<glyph name="G" format="2">
  <advance width="1497"/>
  <unicode hex="0047"/>
  <outline>
    <contour>
      <point x="691" y="-26" type="curve" smooth="yes"/>
      <point x="1078" y="-26"/>
      <point x="1429" y="314"/>
      <point x="1468" y="732" type="curve"/>
      <point x="928" y="740" type="line"/>
      <point x="891" y="480" type="line"/>
      <point x="1076" y="487" type="line"/>
      <point x="974" y="345"/>
      <point x="834" y="274"/>
      <point x="703" y="274" type="curve" smooth="yes"/>
      <point x="496" y="274"/>
      <point x="353" y="452"/>
      <point x="385" y="679" type="curve" smooth="yes"/>
      <point x="422" y="944"/>
      <point x="646" y="1126"/>
      <point x="855" y="1126" type="curve" smooth="yes"/>
      <point x="944" y="1126"/>
      <point x="1037" y="1090"/>
      <point x="1106" y="998" type="curve"/>
      <point x="1383" y="1129" type="line"/>
      <point x="1258" y="1331"/>
      <point x="1069" y="1424"/>
      <point x="867" y="1424" type="curve" smooth="yes"/>
      <point x="519" y="1424"/>
      <point x="150" y="1138"/>
      <point x="91" y="719" type="curve" smooth="yes"/>
      <point x="34" y="312"/>
      <point x="290" y="-26"/>
    </contour>
  </outline>
</glyph>
<glyph name="J" format="2">
  <advance width="934"/>
  <unicode hex="004A"/>
  <outline>
    <contour>
      <point x="285" y="-26" type="curve" smooth="yes"/>
      <point x="536" y="-26"/>
      <point x="769" y="178"/>
      <point x="805" y="438" type="curve" smooth="yes"/>
      <point x="940" y="1400" type="line"/>
      <point x="640" y="1400" type="line"/>
      <point x="508" y="454" type="line" smooth="yes"/>
      <point x="494" y="360"/>
      <point x="396" y="274"/>
      <point x="293" y="274" type="curve" smooth="yes"/>
      <point x="250" y="274"/>
      <point x="218" y="291"/>
      <point x="199" y="309" type="curve"/>
      <point x="-14" y="89" type="line"/>
      <point x="63" y="17"/>
      <point x="166" y="-26"/>
    </contour>
  </outline>
</glyph>
<glyph name="O" format="2">
  <advance width="1540"/>
  <unicode hex="004F"/>
  <outline>
    <contour>
      <point x="713" y="-26" type="curve" smooth="yes"/>
      <point x="1084" y="-26"/>
      <point x="1431" y="292"/>
      <point x="1486" y="683" type="curve" smooth="yes"/>
      <point x="1543" y="1092"/>
      <point x="1272" y="1426"/>
      <point x="883" y="1426" type="curve" smooth="yes"/>
      <point x="512" y="1426"/>
      <point x="166" y="1108"/>
      <point x="110" y="717" type="curve" smooth="yes"/>
      <point x="53" y="308"/>
      <point x="324" y="-26"/>
    </contour>
    <contour>
      <point x="721" y="274" type="curve" smooth="yes"/>
      <point x="516" y="274"/>
      <point x="374" y="458"/>
      <point x="406" y="683" type="curve" smooth="yes"/>
      <point x="440" y="926"/>
      <point x="652" y="1126"/>
      <point x="875" y="1126" type="curve" smooth="yes"/>
      <point x="1080" y="1126"/>
      <point x="1222" y="942"/>
      <point x="1190" y="717" type="curve" smooth="yes"/>
      <point x="1156" y="474"/>
      <point x="944" y="274"/>
    </contour>
  </outline>
</glyph>
<glyph name="T" format="2">
  <advance width="1260"/>
  <unicode hex="0054"/>
  <outline>
    <contour>
      <point x="1306" y="1400" type="line"/>
      <point x="206" y="1400" type="line"/>
      <point x="164" y="1100" type="line"/>
      <point x="564" y="1100" type="line"/>
      <point x="410" y="0" type="line"/>
      <point x="710" y="0" type="line"/>
      <point x="864" y="1100" type="line"/>
      <point x="1264" y="1100" type="line"/>
    </contour>
  </outline>
</glyph>
<glyph name="V" format="2">
  <advance width="1444"/>
  <unicode hex="0056"/>
  <outline>
    <contour>
      <point x="460" y="0" type="line"/>
      <point x="848" y="0" type="line"/>
      <point x="1553" y="1400" type="line"/>
      <point x="1230" y="1400" type="line"/>
      <point x="695" y="344" type="line"/>
      <point x="462" y="1400" type="line"/>
      <point x="149" y="1400" type="line"/>
    </contour>
  </outline>
</glyph>
<glyph name="X" format="2">
  <advance width="1516"/>
  <unicode hex="0058"/>
  <outline>
    <contour>
      <point x="-13" y="0" type="line"/>
      <point x="365" y="0" type="line"/>
      <point x="757" y="448" type="line"/>
      <point x="1017" y="0" type="line"/>
      <point x="1383" y="0" type="line"/>
      <point x="973" y="704" type="line"/>
      <point x="1582" y="1402" type="line"/>
      <point x="1206" y="1402" type="line"/>
      <point x="816" y="958" type="line"/>
      <point x="558" y="1402" type="line"/>
      <point x="194" y="1402" type="line"/>
      <point x="601" y="704" type="line"/>
    </contour>
  </outline>
</glyph>
<glyph name="underscore" format="2">
  <advance width="1240"/>
  <unicode hex="005F"/>
  <outline>
    <contour>
      <point x="76" y="188" type="line"/>
      <point x="34" y="-112" type="line"/>
      <point x="1034" y="-112" type="line"/>
      <point x="1076" y="188" type="line"/>
    </contour>
  </outline>
</glyph>
<glyph name="b" format="2">
  <advance width="1260"/>
  <unicode hex="0062"/>
  <outline>
    <contour>
      <point x="729" y="1028" type="curve"/>
      <point x="632" y="1028"/>
      <point x="545" y="984"/>
      <point x="473" y="914" type="curve"/>
      <point x="561" y="1500" type="line"/>
      <point x="261" y="1500" type="line"/>
      <point x="50" y="0" type="line"/>
      <point x="350" y="0" type="line"/>
      <point x="369" y="100" type="line"/>
      <point x="422" y="30"/>
      <point x="500" y="-26"/>
      <point x="615" y="-26" type="curve"/>
      <point x="898" y="-26"/>
      <point x="1158" y="202"/>
      <point x="1198" y="485" type="curve"/>
      <point x="1240" y="784"/>
      <point x="1030" y="1028"/>
    </contour>
    <contour>
      <point x="618" y="264" type="curve"/>
      <point x="504" y="264"/>
      <point x="427" y="362"/>
      <point x="444" y="485" type="curve"/>
      <point x="463" y="624"/>
      <point x="588" y="740"/>
      <point x="718" y="740" type="curve"/>
      <point x="834" y="740"/>
      <point x="912" y="640"/>
      <point x="895" y="519" type="curve"/>
      <point x="875" y="378"/>
      <point x="750" y="264"/>
    </contour>
  </outline>
</glyph>
<glyph name="e" format="2">
  <advance width="1120"/>
  <unicode hex="0065"/>
  <outline>
    <contour>
      <point x="503" y="-26" type="curve" smooth="yes"/>
      <point x="694" y="-26"/>
      <point x="878" y="90"/>
      <point x="984" y="268" type="curve"/>
      <point x="681" y="353" type="line"/>
      <point x="638" y="308"/>
      <point x="578" y="273"/>
      <point x="511" y="274" type="curve" smooth="yes"/>
      <point x="427" y="276"/>
      <point x="384" y="322"/>
      <point x="366" y="393" type="curve"/>
      <point x="1037" y="393" type="line"/>
      <point x="1142" y="711"/>
      <point x="945" y="1028"/>
      <point x="617" y="1028" type="curve" smooth="yes"/>
      <point x="350" y="1028"/>
      <point x="102" y="800"/>
      <point x="62" y="518" type="curve" smooth="yes"/>
      <point x="20" y="218"/>
      <point x="218" y="-26"/>
    </contour>
    <contour>
      <point x="392" y="613" type="line"/>
      <point x="433" y="699"/>
      <point x="521" y="768"/>
      <point x="614" y="768" type="curve" smooth="yes"/>
      <point x="692" y="768"/>
      <point x="752" y="715"/>
      <point x="769" y="629" type="curve"/>
    </contour>
  </outline>
</glyph>
<glyph name="f" format="2">
  <advance width="762"/>
  <unicode hex="0066"/>
  <outline>
    <contour>
      <point x="539" y="1174" type="line"/>
      <point x="542" y="1198"/>
      <point x="574" y="1224"/>
      <point x="607" y="1224" type="curve"/>
      <point x="614" y="1224"/>
      <point x="627" y="1222"/>
      <point x="631" y="1202" type="curve"/>
      <point x="870" y="1400" type="line"/>
      <point x="807" y="1481"/>
      <point x="716" y="1524"/>
      <point x="615" y="1524" type="curve"/>
      <point x="434" y="1524"/>
      <point x="267" y="1378"/>
      <point x="241" y="1190" type="curve"/>
      <point x="214" y="1000" type="line"/>
      <point x="120" y="1000" type="line"/>
      <point x="78" y="700" type="line"/>
      <point x="172" y="700" type="line"/>
      <point x="74" y="0" type="line"/>
      <point x="374" y="0" type="line"/>
      <point x="472" y="700" type="line"/>
      <point x="730" y="700" type="line"/>
      <point x="772" y="1000" type="line"/>
      <point x="514" y="1000" type="line"/>
    </contour>
  </outline>
</glyph>
<glyph name="h" format="2">
  <advance width="1178"/>
  <unicode hex="0068"/>
  <outline>
    <contour>
      <point x="1097" y="496" type="line"/>
      <point x="1134" y="784"/>
      <point x="986" y="1026"/>
      <point x="689" y="1026" type="curve"/>
      <point x="598" y="1026"/>
      <point x="530" y="1028"/>
      <point x="479" y="946" type="curve"/>
      <point x="561" y="1500" type="line"/>
      <point x="261" y="1500" type="line"/>
      <point x="50" y="0" type="line"/>
      <point x="352" y="0" type="line"/>
      <point x="421" y="492" type="line"/>
      <point x="439" y="624"/>
      <point x="510" y="738"/>
      <point x="650" y="738" type="curve"/>
      <point x="752" y="738"/>
      <point x="818" y="640"/>
      <point x="799" y="508" type="curve"/>
      <point x="728" y="0" type="line"/>
      <point x="1028" y="0" type="line"/>
    </contour>
  </outline>
</glyph>
<glyph name="i" format="2">
  <advance width="542"/>
  <unicode hex="0069"/>
  <outline>
    <contour>
      <point x="192" y="1000" type="line"/>
      <point x="52" y="0" type="line"/>
      <point x="352" y="0" type="line"/>
      <point x="492" y="1000" type="line"/>
    </contour>
    <contour>
      <point x="371" y="1100" type="curve"/>
      <point x="447" y="1100"/>
      <point x="512" y="1158"/>
      <point x="523" y="1233" type="curve"/>
      <point x="536" y="1324"/>
      <point x="472" y="1400"/>
      <point x="380" y="1400" type="curve"/>
      <point x="306" y="1400"/>
      <point x="238" y="1340"/>
      <point x="228" y="1267" type="curve"/>
      <point x="215" y="1174"/>
      <point x="281" y="1100"/>
    </contour>
  </outline>
</glyph>
<glyph name="k" format="2">
  <advance width="1118"/>
  <unicode hex="006B"/>
  <outline>
    <contour>
      <point x="1001" y="0" type="line"/>
      <point x="746" y="588" type="line"/>
      <point x="1151" y="1000" type="line"/>
      <point x="753" y="1000" type="line"/>
      <point x="442" y="682" type="line"/>
      <point x="561" y="1500" type="line"/>
      <point x="261" y="1500" type="line"/>
      <point x="50" y="0" type="line"/>
      <point x="350" y="0" type="line"/>
      <point x="383" y="216" type="line"/>
      <point x="512" y="344" type="line"/>
      <point x="661" y="0" type="line"/>
    </contour>
  </outline>
</glyph>
<glyph name="n" format="2">
  <advance width="1216"/>
  <unicode hex="006E"/>
  <outline>
    <contour>
      <point x="1116" y="498" type="line"/>
      <point x="1154" y="786"/>
      <point x="1006" y="1028"/>
      <point x="709" y="1028" type="curve"/>
      <point x="610" y="1028"/>
      <point x="525" y="986"/>
      <point x="453" y="914" type="curve"/>
      <point x="471" y="1000" type="line"/>
      <point x="170" y="1000" type="line"/>
      <point x="30" y="0" type="line"/>
      <point x="330" y="0" type="line"/>
      <point x="399" y="494" type="line"/>
      <point x="417" y="624"/>
      <point x="510" y="740"/>
      <point x="648" y="740" type="curve"/>
      <point x="772" y="740"/>
      <point x="836" y="640"/>
      <point x="817" y="510" type="curve"/>
      <point x="746" y="0" type="line"/>
      <point x="1046" y="0" type="line"/>
    </contour>
  </outline>
</glyph>
<glyph name="w" format="2">
  <advance width="1748"/>
  <unicode hex="0077"/>
  <outline>
    <contour>
      <point x="620" y="0" type="line"/>
      <point x="887" y="562" type="line"/>
      <point x="992" y="0" type="line"/>
      <point x="1286" y="0" type="line"/>
      <point x="1761" y="1000" type="line"/>
      <point x="1462" y="1000" type="line"/>
      <point x="1193" y="438" type="line"/>
      <point x="1088" y="1000" type="line"/>
      <point x="796" y="1000" type="line"/>
      <point x="529" y="438" type="line"/>
      <point x="422" y="1000" type="line"/>
      <point x="133" y="1000" type="line"/>
      <point x="326" y="0" type="line"/>
    </contour>
  </outline>
</glyph>
<glyph name="y" format="2">
  <advance width="1206"/>
  <unicode hex="0079"/>
  <outline>
    <contour>
      <point x="874" y="1000" type="line"/>
      <point x="573" y="410" type="line"/>
      <point x="476" y="1000" type="line"/>
      <point x="153" y="1000" type="line"/>
      <point x="370" y="0" type="line"/>
      <point x="117" y="-500" type="line"/>
      <point x="440" y="-500" type="line"/>
      <point x="1199" y="1000" type="line"/>
    </contour>
  </outline>
</glyph>
<glyph name="brokenbar" format="2">
  <advance width="540"/>
  <unicode hex="00A6"/>
  <outline>
    <contour>
      <point x="113" y="448" type="line"/>
      <point x="7" y="-302" type="line"/>
      <point x="307" y="-302" type="line"/>
      <point x="413" y="448" type="line"/>
    </contour>
    <contour>
      <point x="246" y="1400" type="line"/>
      <point x="141" y="650" type="line"/>
      <point x="441" y="650" type="line"/>
      <point x="546" y="1400" type="line"/>
    </contour>
  </outline>
</glyph>
<glyph name="plusminus" format="2">
  <advance width="1160"/>
  <unicode hex="00B1"/>
  <outline>
    <contour>
      <point x="416" y="400" type="line"/>
      <point x="716" y="400" type="line"/>
      <point x="765" y="750" type="line"/>
      <point x="1115" y="750" type="line"/>
      <point x="1157" y="1050" type="line"/>
      <point x="807" y="1050" type="line"/>
      <point x="856" y="1400" type="line"/>
      <point x="556" y="1400" type="line"/>
      <point x="507" y="1050" type="line"/>
      <point x="157" y="1050" type="line"/>
      <point x="115" y="750" type="line"/>
      <point x="465" y="750" type="line"/>
    </contour>
    <contour>
      <point x="10" y="0" type="line"/>
      <point x="1010" y="0" type="line"/>
      <point x="1052" y="300" type="line"/>
      <point x="52" y="300" type="line"/>
    </contour>
  </outline>
</glyph>
<glyph name="AE" format="2">
  <advance width="1710"/>
  <unicode hex="00C6"/>
  <outline>
    <contour>
      <point x="7" y="0" type="line"/>
      <point x="330" y="0" type="line"/>
      <point x="441" y="220" type="line"/>
      <point x="819" y="220" type="line"/>
      <point x="788" y="0" type="line"/>
      <point x="1540" y="0" type="line"/>
      <point x="1582" y="300" type="line"/>
      <point x="1130" y="300" type="line"/>
      <point x="1165" y="550" type="line"/>
      <point x="1521" y="550" type="line"/>
      <point x="1563" y="850" type="line"/>
      <point x="1207" y="850" type="line"/>
      <point x="1242" y="1100" type="line"/>
      <point x="1694" y="1100" type="line"/>
      <point x="1736" y="1400" type="line"/>
      <point x="712" y="1400" type="line"/>
    </contour>
    <contour>
      <point x="593" y="520" type="line"/>
      <point x="885" y="1100" type="line"/>
      <point x="942" y="1100" type="line"/>
      <point x="861" y="520" type="line"/>
    </contour>
  </outline>
</glyph>
<glyph name="Oslash" format="2">
  <advance width="1540"/>
  <unicode hex="00D8"/>
  <outline>
    <contour>
      <point x="388" y="-122" type="line"/>
      <point x="491" y="17" type="line"/>
      <point x="554" y="-9"/>
      <point x="626" y="-26"/>
      <point x="713" y="-26" type="curve" smooth="yes"/>
      <point x="1084" y="-26"/>
      <point x="1431" y="292"/>
      <point x="1486" y="683" type="curve" smooth="yes"/>
      <point x="1516" y="898"/>
      <point x="1454" y="1086"/>
      <point x="1341" y="1220" type="curve"/>
      <point x="1456" y="1372" type="line"/>
      <point x="1211" y="1522" type="line"/>
      <point x="1107" y="1385" type="line"/>
      <point x="1044" y="1409"/>
      <point x="972" y="1426"/>
      <point x="883" y="1426" type="curve" smooth="yes"/>
      <point x="512" y="1426"/>
      <point x="166" y="1108"/>
      <point x="110" y="717" type="curve" smooth="yes"/>
      <point x="80" y="502"/>
      <point x="144" y="314"/>
      <point x="255" y="182" type="curve"/>
      <point x="142" y="28" type="line"/>
    </contour>
    <contour>
      <point x="439" y="445" type="line"/>
      <point x="406" y="515"/>
      <point x="394" y="600"/>
      <point x="406" y="683" type="curve" smooth="yes"/>
      <point x="440" y="926"/>
      <point x="652" y="1126"/>
      <point x="875" y="1126" type="curve" smooth="yes"/>
      <point x="890" y="1126"/>
      <point x="914" y="1125"/>
      <point x="936" y="1121" type="curve"/>
    </contour>
    <contour>
      <point x="721" y="274" type="curve" smooth="yes"/>
      <point x="708" y="274"/>
      <point x="684" y="274"/>
      <point x="663" y="280" type="curve"/>
      <point x="1160" y="955" type="line"/>
      <point x="1193" y="885"/>
      <point x="1202" y="800"/>
      <point x="1190" y="717" type="curve" smooth="yes"/>
      <point x="1156" y="474"/>
      <point x="944" y="274"/>
    </contour>
  </outline>
</glyph>
<glyph name="ae" format="2">
  <advance width="1818"/>
  <unicode hex="00E6"/>
  <outline>
    <contour>
      <point x="438" y="-26" type="curve" smooth="yes"/>
      <point x="564" y="-26" type="line" smooth="yes"/>
      <point x="698" y="-26"/>
      <point x="781" y="8"/>
      <point x="886" y="102" type="curve"/>
      <point x="958" y="28"/>
      <point x="1066" y="-26"/>
      <point x="1201" y="-26" type="curve" smooth="yes"/>
      <point x="1392" y="-26"/>
      <point x="1576" y="90"/>
      <point x="1681" y="268" type="curve"/>
      <point x="1378" y="355" type="line"/>
      <point x="1336" y="309"/>
      <point x="1276" y="274"/>
      <point x="1209" y="274" type="curve" smooth="yes"/>
      <point x="1124" y="276"/>
      <point x="1082" y="322"/>
      <point x="1064" y="394" type="curve"/>
      <point x="1735" y="394" type="line"/>
      <point x="1840" y="714"/>
      <point x="1642" y="1028"/>
      <point x="1315" y="1028" type="curve" smooth="yes"/>
      <point x="1200" y="1028"/>
      <point x="1084" y="988"/>
      <point x="978" y="904" type="curve"/>
      <point x="908" y="984"/>
      <point x="780" y="1028"/>
      <point x="609" y="1028" type="curve" smooth="yes"/>
      <point x="422" y="1028"/>
      <point x="282" y="1011"/>
      <point x="162" y="845" type="curve"/>
      <point x="407" y="679" type="line"/>
      <point x="427" y="709"/>
      <point x="460" y="756"/>
      <point x="605" y="756" type="curve" smooth="yes"/>
      <point x="708" y="756"/>
      <point x="778" y="716"/>
      <point x="782" y="630" type="curve"/>
      <point x="367" y="622" type="line" smooth="yes"/>
      <point x="207" y="622"/>
      <point x="81" y="510"/>
      <point x="60" y="361" type="curve" smooth="yes"/>
      <point x="27" y="126"/>
      <point x="154" y="-26"/>
    </contour>
    <contour>
      <point x="485" y="154" type="curve" smooth="yes"/>
      <point x="381" y="154"/>
      <point x="329" y="206"/>
      <point x="341" y="293" type="curve" smooth="yes"/>
      <point x="354" y="384"/>
      <point x="437" y="402"/>
      <point x="525" y="402" type="curve" smooth="yes"/>
      <point x="738" y="402" type="line"/>
      <point x="731" y="352" type="line" smooth="yes"/>
      <point x="717" y="254"/>
      <point x="605" y="154"/>
    </contour>
    <contour>
      <point x="1089" y="614" type="line"/>
      <point x="1129" y="700"/>
      <point x="1218" y="768"/>
      <point x="1312" y="768" type="curve" smooth="yes"/>
      <point x="1390" y="768"/>
      <point x="1449" y="716"/>
      <point x="1465" y="630" type="curve"/>
    </contour>
  </outline>
</glyph>
<glyph name="idieresis" format="2">
  <advance width="862"/>
  <unicode hex="00EF"/>
  <outline>
    <contour>
      <point x="350" y="1000" type="line"/>
      <point x="210" y="0" type="line"/>
      <point x="510" y="0" type="line"/>
      <point x="650" y="1000" type="line"/>
    </contour>
    <component base="dieresiscomb" xOffset="-340"/>
  </outline>
</glyph>
<glyph name="oe" format="2">
  <advance width="1820"/>
  <unicode hex="0153"/>
  <outline>
    <contour>
      <point x="503" y="-26" type="curve" smooth="yes"/>
      <point x="630" y="-26"/>
      <point x="759" y="26"/>
      <point x="869" y="124" type="curve"/>
      <point x="941" y="38"/>
      <point x="1058" y="-26"/>
      <point x="1203" y="-26" type="curve" smooth="yes"/>
      <point x="1394" y="-26"/>
      <point x="1578" y="90"/>
      <point x="1683" y="268" type="curve"/>
      <point x="1380" y="355" type="line"/>
      <point x="1338" y="309"/>
      <point x="1278" y="274"/>
      <point x="1211" y="274" type="curve" smooth="yes"/>
      <point x="1126" y="276"/>
      <point x="1084" y="322"/>
      <point x="1066" y="394" type="curve"/>
      <point x="1737" y="394" type="line"/>
      <point x="1842" y="714"/>
      <point x="1644" y="1028"/>
      <point x="1317" y="1028" type="curve" smooth="yes"/>
      <point x="1190" y="1028"/>
      <point x="1061" y="976"/>
      <point x="951" y="878" type="curve"/>
      <point x="879" y="964"/>
      <point x="762" y="1028"/>
      <point x="617" y="1028" type="curve" smooth="yes"/>
      <point x="350" y="1028"/>
      <point x="102" y="800"/>
      <point x="62" y="517" type="curve" smooth="yes"/>
      <point x="20" y="218"/>
      <point x="218" y="-26"/>
    </contour>
    <contour>
      <point x="511" y="274" type="curve" smooth="yes"/>
      <point x="412" y="274"/>
      <point x="341" y="364"/>
      <point x="358" y="483" type="curve" smooth="yes"/>
      <point x="376" y="614"/>
      <point x="488" y="728"/>
      <point x="609" y="728" type="curve" smooth="yes"/>
      <point x="708" y="728"/>
      <point x="779" y="634"/>
      <point x="762" y="517" type="curve" smooth="yes"/>
      <point x="744" y="386"/>
      <point x="634" y="274"/>
    </contour>
    <contour>
      <point x="1091" y="614" type="line"/>
      <point x="1131" y="700"/>
      <point x="1220" y="768"/>
      <point x="1314" y="768" type="curve" smooth="yes"/>
      <point x="1392" y="768"/>
      <point x="1451" y="716"/>
      <point x="1467" y="630" type="curve"/>
    </contour>
  </outline>
</glyph>
<glyph name="caron" format="2">
  <advance width="742"/>
  <unicode hex="02C7"/>
  <outline>
    <contour>
      <point x="316" y="1166" type="line"/>
      <point x="618" y="1166" type="line"/>
      <point x="751" y="1400" type="line"/>
      <point x="554" y="1400" type="line"/>
      <point x="473" y="1258" type="line"/>
      <point x="436" y="1400" type="line"/>
      <point x="249" y="1400" type="line"/>
    </contour>
  </outline>
</glyph>
<glyph name="gravecomb" format="2">
  <unicode hex="0300"/>
  <outline>
    <contour>
      <point x="453" y="1426" type="line"/>
      <point x="633" y="1138" type="line"/>
      <point x="788" y="1138" type="line"/>
      <point x="748" y="1426" type="line"/>
    </contour>
  </outline>
</glyph>
<glyph name="circumflexcomb" format="2">
  <unicode hex="0302"/>
  <outline>
    <contour>
      <point x="624" y="1400" type="line"/>
      <point x="491" y="1166" type="line"/>
      <point x="688" y="1166" type="line"/>
      <point x="771" y="1308" type="line"/>
      <point x="806" y="1166" type="line"/>
      <point x="993" y="1166" type="line"/>
      <point x="926" y="1400" type="line"/>
    </contour>
  </outline>
</glyph>
<glyph name="dotaccentcomb" format="2">
  <unicode hex="0307"/>
  <outline>
    <contour>
      <point x="656" y="1124" type="curve" smooth="yes"/>
      <point x="732" y="1124"/>
      <point x="798" y="1180"/>
      <point x="808" y="1257" type="curve" smooth="yes"/>
      <point x="821" y="1350"/>
      <point x="757" y="1424"/>
      <point x="665" y="1424" type="curve" smooth="yes"/>
      <point x="587" y="1424"/>
      <point x="522" y="1366"/>
      <point x="511" y="1291" type="curve" smooth="yes"/>
      <point x="498" y="1196"/>
      <point x="562" y="1124"/>
    </contour>
  </outline>
</glyph>
<glyph name="ringcomb" format="2">
  <unicode hex="030A"/>
  <outline>
    <contour>
      <point x="699" y="1082" type="curve" smooth="yes"/>
      <point x="800" y="1082"/>
      <point x="893" y="1164"/>
      <point x="908" y="1267" type="curve" smooth="yes"/>
      <point x="924" y="1384"/>
      <point x="840" y="1482"/>
      <point x="721" y="1482" type="curve" smooth="yes"/>
      <point x="620" y="1482"/>
      <point x="527" y="1400"/>
      <point x="513" y="1301" type="curve" smooth="yes"/>
      <point x="496" y="1182"/>
      <point x="580" y="1082"/>
    </contour>
    <contour>
      <point x="680" y="1192" type="curve" smooth="yes"/>
      <point x="639" y="1192"/>
      <point x="612" y="1224"/>
      <point x="618" y="1267" type="curve" smooth="yes"/>
      <point x="626" y="1324"/>
      <point x="681" y="1372"/>
      <point x="739" y="1372" type="curve" smooth="yes"/>
      <point x="781" y="1372"/>
      <point x="808" y="1340"/>
      <point x="803" y="1301" type="curve" smooth="yes"/>
      <point x="794" y="1240"/>
      <point x="739" y="1192"/>
    </contour>
  </outline>
</glyph>
<glyph name="foursuperior" format="2">
  <advance width="696"/>
  <unicode hex="2074"/>
  <outline>
    <contour>
      <point x="376" y="818" type="line"/>
      <point x="544" y="818" type="line"/>
      <point x="556" y="904" type="line"/>
      <point x="609" y="904" type="line"/>
      <point x="632" y="1072" type="line"/>
      <point x="579" y="1072" type="line"/>
      <point x="632" y="1449" type="line"/>
      <point x="444" y="1449" type="line"/>
      <point x="178" y="1106" type="line"/>
      <point x="153" y="904" type="line"/>
      <point x="388" y="904" type="line"/>
    </contour>
    <contour>
      <point x="343" y="1072" type="line"/>
      <point x="451" y="1214" type="line"/>
      <point x="428" y="1072" type="line"/>
    </contour>
  </outline>
</glyph>
<glyph name="fivesuperior" format="2">
  <advance width="706"/>
  <unicode hex="2075"/>
  <outline>
    <contour>
      <point x="381" y="798" type="curve" smooth="yes"/>
      <point x="504" y="798"/>
      <point x="616" y="884"/>
      <point x="633" y="1007" type="curve" smooth="yes"/>
      <point x="654" y="1154"/>
      <point x="562" y="1262"/>
      <point x="401" y="1262" type="curve"/>
      <point x="417" y="1305" type="line"/>
      <point x="603" y="1305" type="line"/>
      <point x="623" y="1449" type="line"/>
      <point x="282" y="1449" type="line"/>
      <point x="205" y="1085" type="line"/>
      <point x="272" y="1093"/>
      <point x="381" y="1099"/>
      <point x="422" y="1097" type="curve" smooth="yes"/>
      <point x="453" y="1091"/>
      <point x="474" y="1070"/>
      <point x="470" y="1041" type="curve" smooth="yes"/>
      <point x="463" y="994"/>
      <point x="417" y="954"/>
      <point x="369" y="954" type="curve" smooth="yes"/>
      <point x="338" y="954"/>
      <point x="319" y="978"/>
      <point x="324" y="1016" type="curve"/>
      <point x="159" y="1032" type="line"/>
      <point x="140" y="900"/>
      <point x="242" y="798"/>
    </contour>
  </outline>
</glyph>
<glyph name="eightinferior" format="2">
  <advance width="636"/>
  <unicode hex="2088"/>
  <outline>
    <contour>
      <point x="259" y="-31" type="curve" smooth="yes"/>
      <point x="376" y="-31"/>
      <point x="478" y="57"/>
      <point x="494" y="170" type="curve" smooth="yes"/>
      <point x="503" y="234"/>
      <point x="486" y="287"/>
      <point x="464" y="318" type="curve"/>
      <point x="499" y="358"/>
      <point x="514" y="400"/>
      <point x="519" y="434" type="curve" smooth="yes"/>
      <point x="537" y="561"/>
      <point x="446" y="662"/>
      <point x="323" y="662" type="curve" smooth="yes"/>
      <point x="216" y="662"/>
      <point x="119" y="577"/>
      <point x="103" y="468" type="curve" smooth="yes"/>
      <point x="96" y="416"/>
      <point x="109" y="372"/>
      <point x="124" y="344" type="curve"/>
      <point x="82" y="300"/>
      <point x="61" y="250"/>
      <point x="54" y="204" type="curve" smooth="yes"/>
      <point x="36" y="73"/>
      <point x="128" y="-31"/>
    </contour>
    <contour>
      <point x="249" y="134" type="curve" smooth="yes"/>
      <point x="228" y="134"/>
      <point x="215" y="150"/>
      <point x="218" y="170" type="curve" smooth="yes"/>
      <point x="223" y="210"/>
      <point x="260" y="242"/>
      <point x="297" y="242" type="curve" smooth="yes"/>
      <point x="320" y="242"/>
      <point x="334" y="226"/>
      <point x="330" y="204" type="curve" smooth="yes"/>
      <point x="325" y="166"/>
      <point x="288" y="134"/>
    </contour>
    <contour>
      <point x="288" y="410" type="curve" smooth="yes"/>
      <point x="274" y="410"/>
      <point x="265" y="422"/>
      <point x="267" y="434" type="curve" smooth="yes"/>
      <point x="271" y="467"/>
      <point x="303" y="494"/>
      <point x="333" y="494" type="curve" smooth="yes"/>
      <point x="349" y="494"/>
      <point x="358" y="483"/>
      <point x="355" y="468" type="curve" smooth="yes"/>
      <point x="351" y="438"/>
      <point x="320" y="410"/>
    </contour>
  </outline>
</glyph>
<glyph name="emptyset" format="2">
  <advance width="1160"/>
  <unicode hex="2205"/>
  <outline>
    <contour>
      <point x="303" y="-86" type="line"/>
      <point x="369" y="1" type="line"/>
      <point x="411" y="-15"/>
      <point x="460" y="-26"/>
      <point x="523" y="-26" type="curve" smooth="yes"/>
      <point x="790" y="-26"/>
      <point x="1038" y="202"/>
      <point x="1078" y="483" type="curve" smooth="yes"/>
      <point x="1099" y="638"/>
      <point x="1056" y="772"/>
      <point x="980" y="868" type="curve"/>
      <point x="1055" y="968" type="line"/>
      <point x="858" y="1088" type="line"/>
      <point x="789" y="1001" type="line"/>
      <point x="749" y="1017"/>
      <point x="698" y="1028"/>
      <point x="637" y="1028" type="curve" smooth="yes"/>
      <point x="370" y="1028"/>
      <point x="122" y="800"/>
      <point x="82" y="517" type="curve" smooth="yes"/>
      <point x="61" y="364"/>
      <point x="104" y="230"/>
      <point x="180" y="134" type="curve"/>
      <point x="105" y="34" type="line"/>
    </contour>
    <contour>
      <point x="351" y="372" type="line"/>
      <point x="346" y="404"/>
      <point x="347" y="436"/>
      <point x="351" y="465" type="curve" smooth="yes"/>
      <point x="373" y="624"/>
      <point x="507" y="762"/>
      <point x="642" y="766" type="curve"/>
    </contour>
    <contour>
      <point x="519" y="236" type="curve"/>
      <point x="809" y="630" type="line"/>
      <point x="812" y="598"/>
      <point x="813" y="564"/>
      <point x="809" y="535" type="curve" smooth="yes"/>
      <point x="787" y="376"/>
      <point x="657" y="240"/>
    </contour>
  </outline>
</glyph>
<glyph name="radical" format="2">
  <advance width="1378"/>
  <unicode hex="221A"/>
  <outline>
    <contour>
      <point x="1042" y="1400" type="line"/>
      <point x="505" y="344" type="line"/>
      <point x="425" y="708" type="line"/>
      <point x="112" y="708" type="line"/>
      <point x="270" y="0" type="line"/>
      <point x="658" y="0" type="line"/>
      <point x="1215" y="1100" type="line"/>
      <point x="1382" y="1100" type="line"/>
      <point x="1424" y="1400" type="line"/>
    </contour>
  </outline>
</glyph>
